<svg width="18" height="19" viewBox="0 0 18 19" fill="none" xmlns="http://www.w3.org/2000/svg">
<path fill-rule="evenodd" clip-rule="evenodd" d="M11.203 2.33C9.463 1.796 7.589 1.912 5.929 2.657C4.575 3.265 3.439 4.257 2.656 5.5H5.25C5.664 5.5 6 5.836 6 6.25C6 6.664 5.664 7 5.25 7H0V1.75C0 1.336 0.336 0.999997 0.75 0.999997C1.164 0.999997 1.5 1.336 1.5 1.75V4.525C2.435 3.115 3.754 1.989 5.315 1.289C7.307 0.394997 9.556 0.255997 11.643 0.896997C13.731 1.538 15.513 2.917 16.66 4.775C17.806 6.633 18.238 8.845 17.875 10.998C17.511 13.151 16.377 15.098 14.685 16.478C12.992 17.857 10.855 18.573 8.673 18.494C6.491 18.414 4.413 17.545 2.824 16.047C1.236 14.548 0.246 12.524 0.04 10.35C0.000999961 9.938 0.304 9.572 0.716 9.533C1.128 9.493 1.494 9.796 1.534 10.208C1.705 12.02 2.53 13.707 3.854 14.956C5.177 16.204 6.909 16.929 8.728 16.996C10.546 17.061 12.326 16.464 13.738 15.315C15.148 14.165 16.093 12.542 16.395 10.748C16.698 8.954 16.339 7.111 15.383 5.562C14.428 4.014 12.943 2.864 11.203 2.33ZM9.75 5C9.75 4.586 9.414 4.25 9 4.25C8.586 4.25 8.25 4.586 8.25 5V9.886L8.564 10.11L12.064 12.61C12.401 12.851 12.87 12.773 13.11 12.436C13.351 12.099 13.273 11.63 12.936 11.39L9.75 9.114V5Z" fill="#030303"/>
</svg>
