<svg width="22" height="21" viewBox="0 0 22 21" fill="none" xmlns="http://www.w3.org/2000/svg">
<path fill-rule="evenodd" clip-rule="evenodd" d="M21.146 10.646C21.216 10.7159 21.2638 10.8049 21.2832 10.902C21.3026 10.999 21.2928 11.0996 21.255 11.191C21.2172 11.2824 21.1531 11.3606 21.0709 11.4156C20.9886 11.4706 20.8919 11.5 20.793 11.5H19V19C19 19.3978 18.842 19.7794 18.5606 20.0607C18.2793 20.342 17.8978 20.5 17.5 20.5H13V12.5H8.99999V20.5H4.49999C4.10216 20.5 3.72063 20.342 3.43933 20.0607C3.15802 19.7794 2.99999 19.3978 2.99999 19V11.5H1.20699C1.10805 11.5 1.01135 11.4706 0.92911 11.4156C0.846874 11.3606 0.782805 11.2824 0.745012 11.191C0.707218 11.0996 0.697399 10.999 0.716798 10.902C0.736196 10.8049 0.78394 10.7159 0.853986 10.646L11 0.5L21.146 10.646Z" fill="#030303"/>
</svg>
