<svg width="18" height="21" viewBox="0 0 18 21" fill="none" xmlns="http://www.w3.org/2000/svg">
<path fill-rule="evenodd" clip-rule="evenodd" d="M4.60998 14.219L5.00198 13.999V11.759L4.46798 11.531L3.52598 11.127C2.65698 10.755 2.12598 9.97701 2.07998 9.15301C2.03298 8.33001 2.46998 7.51101 3.28298 7.05601L12.13 2.09001C13.361 1.40101 14.915 1.82001 15.596 2.92301C16.248 3.98101 15.909 5.37501 14.717 6.04101L13.39 6.78401L13.002 7.00101V9.24401L13.532 9.47101L14.474 9.87501C15.343 10.247 15.874 11.025 15.92 11.849C15.967 12.672 15.53 13.491 14.717 13.946L14.715 13.947L5.86998 18.911L5.86898 18.912C4.63798 19.6 3.08498 19.181 2.40398 18.078C1.75198 17.02 2.09098 15.627 3.28298 14.96L4.60998 14.219ZM6.60298 20.221C4.69798 21.287 2.24698 20.681 1.12798 18.866C0.0709766 17.153 0.579977 14.976 2.24498 13.841C2.34386 13.7736 2.44563 13.7106 2.54998 13.652L3.87698 12.91L2.93498 12.506C2.68619 12.3997 2.44867 12.2687 2.22598 12.115C1.26298 11.449 0.647977 10.397 0.581977 9.23801C0.501977 7.81601 1.26098 6.46801 2.54998 5.74801L11.397 0.782014C13.302 -0.283986 15.753 0.322014 16.872 2.13701C17.929 3.85001 17.42 6.02701 15.755 7.16201C15.6562 7.2298 15.5544 7.2932 15.45 7.35201L14.123 8.09401L15.065 8.49701C15.318 8.60601 15.555 8.73701 15.774 8.88901C16.737 9.55501 17.352 10.606 17.418 11.765C17.498 13.188 16.739 14.535 15.45 15.256L6.60298 20.221ZM6.99998 13.067C6.99999 13.1108 7.0115 13.1538 7.03336 13.1917C7.05521 13.2297 7.08665 13.2612 7.12451 13.2832C7.16238 13.3051 7.20535 13.3168 7.24913 13.3169C7.29291 13.3171 7.33596 13.3057 7.37398 13.284L11.824 10.717C11.862 10.6951 11.8935 10.6635 11.9155 10.6255C11.9374 10.5875 11.949 10.5444 11.949 10.5005C11.949 10.4566 11.9374 10.4135 11.9155 10.3755C11.8935 10.3375 11.862 10.306 11.824 10.284L7.37398 7.71701C7.33603 7.69534 7.29308 7.68399 7.24938 7.68409C7.20569 7.6842 7.16278 7.69575 7.12494 7.7176C7.08711 7.73946 7.05566 7.77085 7.03373 7.80864C7.0118 7.84644 7.00017 7.88932 6.99998 7.93301V13.067Z" fill="#030303"/>
</svg>
