<svg width="20" height="18" viewBox="0 0 20 18" fill="none" xmlns="http://www.w3.org/2000/svg">
<path fill-rule="evenodd" clip-rule="evenodd" d="M2 2C2 1.60218 2.15804 1.22064 2.43934 0.93934C2.72064 0.658035 3.10218 0.5 3.5 0.5H16.5C16.8978 0.5 17.2794 0.658035 17.5607 0.93934C17.842 1.22064 18 1.60218 18 2H2ZM18.5 5H1.5V16H18.5V5ZM1.5 3.5C1.10218 3.5 0.720644 3.65804 0.43934 3.93934C0.158035 4.22064 0 4.60218 0 5V16C0 16.3978 0.158035 16.7794 0.43934 17.0607C0.720644 17.342 1.10218 17.5 1.5 17.5H18.5C18.8978 17.5 19.2794 17.342 19.5607 17.0607C19.842 16.7794 20 16.3978 20 16V5C20 4.60218 19.842 4.22064 19.5607 3.93934C19.2794 3.65804 18.8978 3.5 18.5 3.5H1.5ZM8.757 7.954C8.68104 7.90848 8.59436 7.88396 8.50581 7.88293C8.41727 7.8819 8.33004 7.9044 8.25304 7.94814C8.17605 7.99187 8.11205 8.05527 8.06759 8.13186C8.02313 8.20844 7.9998 8.29545 8 8.384V12.617C7.99998 12.7055 8.02343 12.7924 8.06797 12.8688C8.1125 12.9452 8.17651 13.0085 8.25348 13.0521C8.33044 13.0957 8.41761 13.1181 8.50606 13.1171C8.59452 13.116 8.68112 13.0915 8.757 13.046L13 10.5L8.757 7.954Z" fill="#030303"/>
</svg>
