<svg width="20" height="21" viewBox="0 0 20 21" fill="none" xmlns="http://www.w3.org/2000/svg">
<path fill-rule="evenodd" clip-rule="evenodd" d="M10 19C11.894 19 13.643 18.38 15.055 17.334C14.6348 16.3537 13.9386 15.5168 13.0513 14.925C12.164 14.3333 11.1237 14.0123 10.0572 14.0012C8.99073 13.9901 7.94402 14.2893 7.04452 14.8623C6.14502 15.4354 5.43156 16.2577 4.991 17.229C4.97549 17.2633 4.95744 17.2964 4.937 17.328C6.40039 18.4164 8.17625 19.0028 10 19ZM14.079 13.811C14.9792 14.4565 15.7133 15.3065 16.221 16.291C17.3488 15.0795 18.0984 13.565 18.3777 11.9334C18.6569 10.3019 18.4537 8.62433 17.793 7.10665C17.1324 5.58896 16.0429 4.2972 14.6585 3.38994C13.274 2.48267 11.6548 1.99937 9.9995 1.99937C8.34424 1.99937 6.725 2.48267 5.34054 3.38994C3.95608 4.2972 2.86664 5.58896 2.20595 7.10665C1.54526 8.62433 1.34208 10.3019 1.62134 11.9334C1.90061 13.565 2.65016 15.0795 3.778 16.291C4.2388 15.3976 4.88662 14.614 5.67738 13.9933C6.46813 13.3727 7.38328 12.9297 8.36058 12.6944C9.33787 12.4591 10.3544 12.437 11.341 12.6297C12.3275 12.8224 13.2611 13.2253 14.078 13.811H14.079ZM10 20.5C15.523 20.5 20 16.023 20 10.5C20 4.977 15.523 0.5 10 0.5C4.477 0.5 0 4.977 0 10.5C0 16.023 4.477 20.5 10 20.5ZM12 8C12 8.53043 11.7893 9.03914 11.4142 9.41421C11.0391 9.78929 10.5304 10 10 10C9.46957 10 8.96086 9.78929 8.58579 9.41421C8.21071 9.03914 8 8.53043 8 8C8 7.46957 8.21071 6.96086 8.58579 6.58579C8.96086 6.21071 9.46957 6 10 6C10.5304 6 11.0391 6.21071 11.4142 6.58579C11.7893 6.96086 12 7.46957 12 8ZM13.5 8C13.5 8.45963 13.4095 8.91475 13.2336 9.33939C13.0577 9.76403 12.7999 10.1499 12.4749 10.4749C12.1499 10.7999 11.764 11.0577 11.3394 11.2336C10.9148 11.4095 10.4596 11.5 10 11.5C9.54037 11.5 9.08525 11.4095 8.66061 11.2336C8.23597 11.0577 7.85013 10.7999 7.52513 10.4749C7.20012 10.1499 6.94231 9.76403 6.76642 9.33939C6.59053 8.91475 6.5 8.45963 6.5 8C6.5 7.07174 6.86875 6.1815 7.52513 5.52513C8.1815 4.86875 9.07174 4.5 10 4.5C10.9283 4.5 11.8185 4.86875 12.4749 5.52513C13.1313 6.1815 13.5 7.07174 13.5 8Z" fill="#030303"/>
</svg>
