<svg width="18" height="19" viewBox="0 0 18 19" fill="none" xmlns="http://www.w3.org/2000/svg">
<path fill-rule="evenodd" clip-rule="evenodd" d="M13.296 14.496C11.7383 15.872 9.70624 16.5877 7.63006 16.4917C5.55388 16.3956 3.59658 15.4954 2.17255 13.9815C0.748526 12.4676 -0.0304254 10.4589 0.000618868 8.38072C0.0316631 6.30256 0.870266 4.31805 2.33888 2.84736C3.80749 1.37667 5.79081 0.535266 7.86893 0.501284C9.94705 0.467303 11.9568 1.24341 13.4727 2.6653C14.9886 4.08718 15.8917 6.04321 15.9906 8.11925C16.0896 10.1953 15.3768 12.2284 14.003 13.788L17.912 17.698L17.205 18.405L13.296 14.496ZM15 8.50001C15 6.64349 14.2625 4.86301 12.9497 3.55026C11.637 2.2375 9.85651 1.50001 8 1.50001C6.14348 1.50001 4.363 2.2375 3.05025 3.55026C1.7375 4.86301 0.999997 6.64349 0.999997 8.50001C0.999997 9.41926 1.18106 10.3295 1.53284 11.1788C1.88462 12.0281 2.40024 12.7997 3.05025 13.4498C3.70026 14.0998 4.47193 14.6154 5.32121 14.9672C6.17049 15.3189 7.08074 15.5 8 15.5C8.91925 15.5 9.8295 15.3189 10.6788 14.9672C11.5281 14.6154 12.2997 14.0998 12.9497 13.4498C13.5998 12.7997 14.1154 12.0281 14.4672 11.1788C14.8189 10.3295 15 9.41926 15 8.50001Z" fill="#0F0F0F"/>
</svg>
