<svg width="93" height="21" viewBox="0 0 93 21" fill="none" xmlns="http://www.w3.org/2000/svg">
<path d="M14.4848 20.5C14.4848 20.5 23.5695 20.5 25.8229 19.9C27.0917 19.56 28.0459 18.58 28.3808 17.37C29 15.15 29 10.48 29 10.48C29 10.48 29 5.84 28.3808 3.64C28.0459 2.4 27.0917 1.44 25.8229 1.11C23.5695 0.5 14.4848 0.5 14.4848 0.5C14.4848 0.5 5.42037 0.5 3.17711 1.11C1.9286 1.44 0.954148 2.4 0.59888 3.64C0 5.84 0 10.48 0 10.48C0 10.48 0 15.15 0.59888 17.37C0.954148 18.58 1.9286 19.56 3.17711 19.9C5.42037 20.5 14.4848 20.5 14.4848 20.5Z" fill="#FF0033"/>
<path d="M19 10.5L11.5 6.25V14.75L19 10.5Z" fill="white"/>
<path d="M37.1384 19.3999V13.9399L40.6084 2.59995H38.0184L36.6984 7.74994C36.3984 8.92994 36.1284 10.1599 35.9284 11.2999H35.7684C35.6584 10.2999 35.3384 8.98995 35.0184 7.72995L33.7384 2.59995H31.1484L34.5684 13.9399V19.3999H37.1384Z" fill="black"/>
<path d="M44.1003 6.79993C41.0703 6.79993 40.0303 8.54993 40.0303 12.3199V14.1099C40.0303 17.4899 40.6803 19.6099 44.0403 19.6099C47.3503 19.6099 48.0603 17.5899 48.0603 14.1099V12.3199C48.0603 8.94993 47.3803 6.79993 44.1003 6.79993ZM45.3903 15.2199C45.3903 16.8599 45.1003 17.8899 44.0503 17.8899C43.0203 17.8899 42.7303 16.8499 42.7303 15.2199V11.1799C42.7303 9.77993 42.9303 8.52993 44.0503 8.52993C45.2303 8.52993 45.3903 9.84993 45.3903 11.1799V15.2199Z" fill="black"/>
<path d="M52.2713 19.5899C53.7313 19.5899 54.6413 18.9799 55.3913 17.8799H55.5013L55.6113 19.3999H57.6012V7.03995H54.9613V16.9699C54.6812 17.4599 54.0312 17.8199 53.4212 17.8199C52.6512 17.8199 52.4113 17.2099 52.4113 16.1899V7.03995H49.7812V16.3099C49.7812 18.3199 50.3613 19.5899 52.2713 19.5899Z" fill="black"/>
<path d="M62.8261 19.3999V4.64995H65.8661V2.59995H57.1761V4.64995H60.2161V19.3999H62.8261Z" fill="black"/>
<path d="M67.8728 19.5899C69.3328 19.5899 70.2428 18.9799 70.9928 17.8799H71.1028L71.2128 19.3999H73.2028V7.03995H70.5628V16.9699C70.2828 17.4599 69.6328 17.8199 69.0228 17.8199C68.2528 17.8199 68.0128 17.2099 68.0128 16.1899V7.03995H65.3828V16.3099C65.3828 18.3199 65.9628 19.5899 67.8728 19.5899Z" fill="black"/>
<path d="M80.6744 6.76994C79.3944 6.76994 78.4744 7.32994 77.8644 8.23994H77.7344C77.8144 7.03994 77.8744 6.01994 77.8744 5.20994V1.93994H75.3244L75.3144 12.6799L75.3244 19.3999H77.5444L77.7344 18.1999H77.8044C78.3944 19.0099 79.3044 19.5199 80.5144 19.5199C82.5244 19.5199 83.3844 17.7899 83.3844 14.1099V12.1999C83.3844 8.75994 82.9944 6.76994 80.6744 6.76994ZM80.7644 14.1099C80.7644 16.4099 80.4244 17.7799 79.3544 17.7799C78.8544 17.7799 78.1644 17.5399 77.8544 17.0899V9.73994C78.1244 9.03994 78.7244 8.52994 79.3944 8.52994C80.4744 8.52994 80.7644 9.83994 80.7644 12.2299V14.1099Z" fill="black"/>
<path d="M92.6517 11.9999C92.6517 9.01994 92.3517 6.80994 88.9217 6.80994C85.6917 6.80994 84.9717 8.95994 84.9717 12.1199V14.2899C84.9717 17.3699 85.6317 19.6099 88.8417 19.6099C91.3817 19.6099 92.6917 18.3399 92.5417 15.8799L90.2917 15.7599C90.2617 17.2799 89.9117 17.8999 88.9017 17.8999C87.6317 17.8999 87.5717 16.6899 87.5717 14.8899V14.0499H92.6517V11.9999ZM88.8617 8.46994C90.0817 8.46994 90.1717 9.61994 90.1717 11.5699V12.5799H87.5717V11.5699C87.5717 9.63994 87.6517 8.46994 88.8617 8.46994Z" fill="black"/>
</svg>
